<svg width="24" height="24" viewBox="0 0 24 24" fill="none" xmlns="http://www.w3.org/2000/svg" shape-rendering="geometricPrecision">
<g >
<path d="M12 24C18.6274 24 24 18.6274 24 12C24 5.37258 18.6274 0 12 0C5.37258 0 0 5.37258 0 12C0 18.6274 5.37258 24 12 24Z" fill="#CBC2BF"/>
<g id="scaled-glyph" transform="translate(12, 12) scale(0.9) translate(-12, -12)"><path d="M21.7682 11.668C21.7682 12.992 21.2882 13.896 20.3242 14.376C20.0442 14.516 19.1602 14.708 17.6762 14.948C16.7122 15.108 16.2322 15.48 16.2322 16.06V18.496C16.2322 18.596 16.2642 18.908 16.3242 19.428L16.4162 20.392C16.4162 20.692 16.3442 21.184 16.2042 21.868C15.8242 21.948 15.3802 22.04 14.8802 22.14C14.7202 21.536 14.6402 21.128 14.6402 20.904C14.6402 20.804 14.6642 20.652 14.7162 20.452C14.7642 20.252 14.7922 20.1 14.7922 20C14.7922 19.86 14.6682 19.468 14.4162 18.828H13.9482C13.8882 18.928 13.8642 19.06 13.8842 19.22C13.9642 19.56 13.9962 19.852 13.9762 20.092C13.6362 20.332 13.1642 20.656 12.5602 21.056C12.4202 21.016 12.3682 20.996 12.4082 20.996V18.86C12.3682 18.76 12.2682 18.72 12.1082 18.74H11.7482L11.3882 21.568C11.1082 21.588 10.7642 21.588 10.3642 21.568C10.2242 20.908 9.97223 19.924 9.61223 18.62H9.37223C9.15223 19.324 9.03223 19.704 9.01223 19.764C9.01223 19.844 9.03623 20 9.08823 20.232C9.13623 20.464 9.16423 20.62 9.16423 20.7C9.16423 20.76 9.14423 20.912 9.10423 21.152L9.01223 21.876C8.97223 21.916 8.92023 21.936 8.86023 21.936C8.26023 21.936 7.85623 21.784 7.65623 21.484C7.45623 21.184 7.37623 20.76 7.41623 20.22L7.65623 16.608C7.65623 16.548 7.67623 16.468 7.71623 16.368C7.75623 16.268 7.77623 16.196 7.77623 16.156C7.77623 15.996 7.60423 15.676 7.26423 15.192C7.20423 15.172 6.89223 15.1 6.33223 14.98C5.99223 14.9 5.32023 14.76 4.31623 14.56C2.93223 14.3 2.24023 13.188 2.24023 11.22C2.24023 8.29201 3.44423 5.85201 5.85223 3.90801C5.95223 4.44801 6.12423 5.17201 6.36423 6.07601C6.54423 6.11601 6.93623 6.20801 7.53623 6.34801C7.65623 6.38801 8.26823 6.60801 9.37223 7.01201C8.80823 6.67201 8.07623 6.12001 7.17623 5.35601C6.83623 4.95601 6.66423 4.28401 6.66423 3.34001C6.66423 3.12001 7.04423 2.86001 7.80823 2.55601C8.48823 2.27601 9.00423 2.11601 9.34423 2.07601C10.4282 1.93601 11.2602 1.86401 11.8442 1.86401C14.3522 1.86401 16.3802 2.50801 17.9242 3.79201C17.4242 4.37601 16.5602 4.99601 15.3362 5.65601C15.8202 5.67601 16.5202 5.48801 17.4442 5.08401C18.3682 4.68401 18.7602 4.48401 18.6162 4.48401C18.7762 4.48401 19.1002 4.80401 19.5802 5.44801C19.9402 5.92801 20.2322 6.36001 20.4522 6.74401C21.0922 7.88801 21.5242 9.12401 21.7482 10.448C21.7482 10.912 21.7562 11.24 21.7802 11.44V11.68L21.7682 11.668ZM10.2402 12.208C10.2402 11.344 9.86423 10.528 9.11223 9.75601C8.36023 8.98401 7.55223 8.59601 6.68823 8.59601C5.92423 8.59601 5.25223 8.92001 4.67223 9.56401C4.08823 10.212 3.80023 10.928 3.80023 11.716C3.80023 12.404 4.13223 12.848 4.79223 13.048C5.21223 13.168 5.80423 13.24 6.56823 13.26H8.22423C9.56823 13.28 10.2402 12.928 10.2402 12.208ZM13.5202 15.94V15.008C13.3802 14.748 13.2402 14.476 13.1002 14.196C12.9802 13.796 12.7602 13.232 12.4362 12.512L12.1042 16.032C12.1042 16.312 12.0442 16.452 11.9242 16.452C11.8442 16.452 11.7842 16.432 11.7442 16.392C11.6042 14.264 11.5322 13.344 11.5322 13.624V12.572C11.4922 12.512 11.4442 12.48 11.3842 12.48C10.7002 13.184 10.3602 14.316 10.3602 15.88C10.3602 16.744 10.4402 17.276 10.6002 17.476C10.7602 17.436 10.9402 17.364 11.1402 17.264C11.2202 17.224 11.4522 17.204 11.8322 17.204C12.2122 17.204 12.6762 17.324 13.2162 17.564C13.4162 17.564 13.5162 17.024 13.5162 15.94M20.3202 11.748C20.3202 10.94 20.0202 10.22 19.4162 9.58401C18.8122 8.94801 18.1202 8.63201 17.3402 8.63201C16.4962 8.63201 15.7082 9.01601 14.9762 9.79201C14.2442 10.564 13.8762 11.372 13.8762 12.216C13.8762 12.92 14.2162 13.268 14.9002 13.268H18.3602C19.6642 13.248 20.3162 12.744 20.3162 11.752" fill="#130C0E"/></g>
</g>

</svg>
