<svg width="24" height="24" viewBox="0 0 24 24" fill="none" xmlns="http://www.w3.org/2000/svg" shape-rendering="geometricPrecision">
<g >
<path d="M12 24C18.6274 24 24 18.6274 24 12C24 5.37258 18.6274 0 12 0C5.37258 0 0 5.37258 0 12C0 18.6274 5.37258 24 12 24Z" fill="#CCC2C0"/>
<g id="scaled-glyph" transform="translate(12, 12) scale(0.9) translate(-12, -12)"><path d="M12.0004 2.3999C13.9832 6.62136 17.3789 10.0171 21.6004 11.9999C17.3789 13.9827 13.9832 17.3784 12.0004 21.5999C10.0176 17.3784 6.62185 13.9827 2.40039 11.9999C6.62185 10.0171 10.0176 6.62136 12.0004 2.3999ZM12.0004 5.9999C10.7978 8.66387 8.66435 10.7973 6.00039 11.9999C8.66435 13.2025 10.7978 15.3359 12.0004 17.9999C13.2029 15.3359 15.3364 13.2025 18.0004 11.9999C15.3364 10.7973 13.2029 8.66387 12.0004 5.9999Z" fill="#130C0E"/></g>
</g>

</svg>
