<svg width="24" height="24" viewBox="0 0 24 24" fill="none" xmlns="http://www.w3.org/2000/svg" shape-rendering="geometricPrecision">
<g >
<path d="M12 24C18.6274 24 24 18.6274 24 12C24 5.37258 18.6274 0 12 0C5.37258 0 0 5.37258 0 12C0 18.6274 5.37258 24 12 24Z" fill="#9BD3AE"/>
<g id="scaled-glyph" transform="translate(12, 12) scale(0.9) translate(-12, -12)"><path d="M22.5039 13.4961C22.5039 13.8961 22.3479 14.2561 22.0399 14.5761C21.7319 14.8961 21.3759 15.0561 20.9759 15.0561C20.3359 15.0561 19.8679 14.7561 19.5679 14.1561L18.1599 14.0961C17.8599 14.0961 17.2679 14.2281 16.3919 14.4881C15.4519 14.7481 14.9119 14.9561 14.7719 15.1161C14.5519 15.3561 14.3719 15.9161 14.2319 16.7961C14.1119 17.5161 14.0519 18.0441 14.0519 18.3841C14.0519 18.9241 14.1359 19.3201 14.3079 19.5681C14.4799 19.8161 14.8279 20.0281 15.3559 20.1961C15.8839 20.3641 16.2119 20.4601 16.3319 20.4801C16.4119 20.4801 16.5399 20.4721 16.7239 20.4521H17.0839C17.3439 20.4521 17.6119 20.4921 17.8919 20.5721C18.2919 20.6921 18.4639 20.8521 18.4039 21.0521C18.1239 21.0121 17.6359 21.0721 16.9359 21.2321L17.7759 21.6521C17.7759 21.8921 17.4359 22.0121 16.7559 22.0121C16.5759 22.0121 16.3319 21.9721 16.0199 21.8921C15.7119 21.8121 15.5039 21.7721 15.4039 21.7721H15.0159C14.9959 21.9721 14.9359 22.2721 14.8359 22.6721C14.4959 22.6521 14.0959 22.4521 13.6359 22.0721C13.1759 21.6921 12.8879 21.5041 12.7679 21.5041C12.6479 21.5041 12.4759 21.6961 12.2599 22.0721C12.0399 22.4521 11.9319 22.7121 11.9319 22.8521C11.6719 22.7121 11.4519 22.4521 11.2719 22.0721C11.1919 21.8121 11.1039 21.5521 11.0039 21.2921C10.8039 21.3121 10.4359 21.7321 9.89585 22.5521H9.74385C9.70385 22.4921 9.55185 22.0721 9.29585 21.2921C8.67585 21.0921 8.09585 20.9921 7.55585 20.9921C7.29585 20.9921 6.89585 21.0521 6.35585 21.1721L5.51585 21.1121C5.63585 20.9921 5.98385 20.7641 6.56385 20.4241C7.24385 20.0241 7.76385 19.8241 8.12385 19.8241C8.18385 19.8241 8.26385 19.8361 8.36385 19.8561C8.46385 19.8761 8.54385 19.8881 8.60385 19.8881C8.74385 19.8881 8.96785 19.8121 9.27985 19.6641C9.58785 19.5161 9.76785 19.3801 9.81985 19.2601C9.87185 19.1401 9.89585 18.8281 9.89585 18.3321C9.89585 17.1921 9.59585 16.3441 8.99585 15.7841C8.47585 15.2841 7.61585 14.9241 6.41585 14.7041C6.09585 15.8441 5.19585 16.4121 3.71985 16.4121C3.23985 16.4121 2.75985 16.1241 2.27985 15.5441C1.78785 14.9521 1.54785 14.4241 1.54785 13.9441C1.54785 13.2041 1.85585 12.5961 2.47585 12.1161C1.97585 11.5961 1.72785 11.0681 1.72785 10.5281C1.72785 10.0281 1.88385 9.58813 2.19185 9.20813C2.49985 8.82813 2.90785 8.60813 3.40785 8.54813C3.36785 7.90813 3.57585 7.46813 4.03585 7.22813C3.81585 7.00813 3.70785 6.62013 3.70785 6.06013C3.70785 5.40013 3.92785 4.85213 4.36785 4.41213C4.80785 3.97213 5.35585 3.75213 6.01585 3.75213C6.73585 3.75213 7.32385 4.00413 7.78385 4.50413C8.36385 2.52413 9.61185 1.53613 11.5319 1.53613C12.5319 1.53613 13.4119 1.93613 14.1719 2.73613C14.4519 3.03613 14.5919 3.19613 14.5919 3.21613C14.3519 3.21613 14.4719 3.17213 14.9519 3.08013C15.4319 2.99213 15.7799 2.94413 15.9999 2.94413C16.7799 2.94413 17.4679 3.23213 18.0679 3.81213C18.5879 4.33213 18.9479 4.99213 19.1479 5.79213C19.2879 5.81213 19.5079 5.87213 19.8079 5.97213C20.2479 6.19213 20.4679 6.57213 20.4679 7.11213C20.4679 7.21213 20.3879 7.40413 20.2279 7.68013C21.5079 8.40013 22.1479 9.40013 22.1479 10.6801C22.1479 11.0401 22.0079 11.5401 21.7279 12.1801C22.2479 12.4801 22.5079 12.9201 22.5079 13.5001M10.1559 14.8201V14.4321C10.1559 13.9721 9.93185 13.5521 9.47985 13.1721C9.03185 12.7921 8.57585 12.6041 8.11585 12.6041C7.55585 12.6041 7.03585 12.7321 6.55585 12.9921C7.61585 12.9321 8.81585 13.5441 10.1519 14.8201M9.61185 11.1041C9.31185 10.7641 9.05185 10.4161 8.83185 10.0561C7.99185 10.2761 7.57185 10.5241 7.57185 10.8041C7.81185 10.7841 8.15985 10.8281 8.61985 10.9401C9.07985 11.0521 9.40785 11.1041 9.61185 11.1041ZM11.4399 10.1761V8.85613C10.9599 8.77613 10.6679 8.73613 10.5719 8.73613V9.18413L11.4399 10.1721M15.3359 9.33213C15.0959 9.23213 14.6479 9.03213 13.9879 8.73213V11.3121C14.9279 10.7721 15.3759 10.1121 15.3359 9.33213ZM16.9839 12.8721L16.3239 12.0641C15.9239 12.3441 15.5199 12.6281 15.1079 12.9201C14.6959 13.2081 14.3439 13.5361 14.0439 13.8961C14.9439 13.4161 15.9239 13.0761 16.9799 12.8761" fill="#00160B"/></g>
</g>

</svg>
