<svg width="24" height="24" viewBox="0 0 24 24" fill="none" xmlns="http://www.w3.org/2000/svg" shape-rendering="geometricPrecision">
<g >
<path d="M12 24C18.6274 24 24 18.6274 24 12C24 5.37258 18.6274 0 12 0C5.37258 0 0 5.37258 0 12C0 18.6274 5.37258 24 12 24Z" fill="#CCC2C0"/>
<g id="scaled-glyph" transform="translate(12, 12) scale(0.9) translate(-12, -12)"><path d="M8.76119 4.05211L8.76242 4.05149C9.27192 3.85634 9.56897 4.26517 9.68878 4.45785C10.3527 5.39347 10.6238 6.52795 11.1055 7.55621C11.757 8.92228 12.4679 10.3124 13.6011 11.3469C13.7499 11.5068 14.0451 11.6519 14.1742 11.5006C14.6485 10.9448 15.032 10.3205 15.3772 9.67757C15.6002 9.23415 16.0942 8.95069 16.5889 8.96674C16.9805 8.95563 17.3337 9.20698 17.5517 9.517C18.0513 10.2772 18.2916 11.1628 18.6257 12.0009C19.037 12.884 19.4847 13.7758 20.1813 14.473C20.5945 14.8584 21.0428 15.2042 21.4288 15.6186C21.6406 15.8064 21.7598 16.0682 21.8525 16.3294L21.8617 16.356C21.9538 17.0829 21.5449 17.4275 21.3109 17.5936C20.8545 17.9574 20.3098 18.1865 19.7614 18.3705C17.9124 19.027 15.9553 19.3722 14.0013 19.4562C10.8196 19.5927 9.56897 19.4587 9.24475 19.4031C8.05716 19.2969 6.87759 19.0986 5.71779 18.8213C4.76488 18.5589 3.79159 18.2933 2.94243 17.7702C2.61141 17.5732 1.98025 17.3324 2.15502 16.3381L2.1649 16.3251C2.34338 15.6705 2.84361 15.1733 3.29938 14.6923C3.63596 14.234 4.10655 13.8993 4.44313 13.4417C5.24226 12.414 5.82896 11.2382 6.28905 10.0259C6.71023 8.96304 6.95664 7.84091 7.33089 6.76139C7.51802 6.06539 7.79592 5.39532 8.1325 4.75861C8.28257 4.47761 8.49007 4.22626 8.76119 4.05396V4.05211Z" fill="#130C0E"/></g>
</g>

</svg>
