<svg width="24" height="24" viewBox="0 0 24 24" fill="none" xmlns="http://www.w3.org/2000/svg" shape-rendering="geometricPrecision">
<g >
<path d="M12 24C18.6274 24 24 18.6274 24 12C24 5.37258 18.6274 0 12 0C5.37258 0 0 5.37258 0 12C0 18.6274 5.37258 24 12 24Z" fill="#F9AA8F"/>
<g id="scaled-glyph" transform="translate(12, 12) scale(0.9) translate(-12, -12)"><path d="M22.0725 15.9879C21.1765 18.1279 19.3925 19.1959 16.7285 19.1959C16.2405 19.1959 15.7085 19.2559 15.1405 19.3799C14.2845 19.5639 13.8565 19.8199 13.8565 20.1439C13.8565 20.2439 13.9285 20.3639 14.0685 20.4959C14.2125 20.6279 14.3325 20.6959 14.4365 20.6959C13.9285 20.6959 14.2725 20.7119 15.4765 20.7399C16.6805 20.7719 17.4325 20.7839 17.7365 20.7839C15.9645 21.8239 13.0005 22.2999 8.84448 22.2199C7.48048 22.1999 6.30848 21.5999 5.33248 20.4159C4.37248 19.2959 3.89648 18.0439 3.89648 16.6599C3.89648 15.1959 4.38848 13.9479 5.38048 12.9159C6.36848 11.8879 7.59648 11.3719 9.06048 11.3719C9.38448 11.3719 9.82048 11.4439 10.3605 11.5839C10.9005 11.7279 11.2605 11.7959 11.4445 11.7959C12.1965 11.7959 13.1365 11.4839 14.2565 10.8639C15.3765 10.2439 15.9085 9.93193 15.8445 9.93193C15.6405 12.0719 14.9285 13.5079 13.7045 14.2399C12.8285 14.7479 12.3925 15.2479 12.3925 15.7359C12.3925 16.0399 12.5765 16.2879 12.9405 16.4679C13.2245 16.6119 13.5405 16.6839 13.8885 16.6839C14.4165 16.6839 14.9365 16.3599 15.4485 15.7079C15.9565 15.0559 16.1805 14.4639 16.1205 13.9359C16.0605 13.3239 16.1005 12.5919 16.2445 11.7359C16.2845 11.4919 16.4325 11.1919 16.6885 10.8359C16.9445 10.4799 17.1725 10.2599 17.3765 10.1799C17.3765 10.3639 17.3125 10.6679 17.1765 11.0959C17.0445 11.5239 16.9765 11.8399 16.9765 12.0439C16.9765 12.4919 17.0965 12.8399 17.3445 13.0839C17.7125 12.9399 18.0365 12.4839 18.3205 11.7079C18.5645 11.1159 18.7085 10.5479 18.7485 9.99593C17.8925 9.95593 17.0725 9.56793 16.2885 8.83593C15.5045 8.10393 15.1125 7.30793 15.1125 6.45193C15.1125 6.30793 15.1325 6.16793 15.1725 6.02393C15.2925 6.20793 15.4765 6.49193 15.7205 6.87993C16.0685 7.38793 16.3325 7.64393 16.5165 7.64393C16.7605 7.64393 16.8845 7.38793 16.8845 6.87993C16.8845 6.22793 16.7125 5.63593 16.3645 5.10793C15.9765 4.47593 15.4765 4.15993 14.8685 4.15993C14.5845 4.15993 14.1565 4.31193 13.5845 4.61993C13.0125 4.92393 12.4925 5.07993 12.0245 5.07993C11.8805 5.07993 11.2485 4.89593 10.1285 4.52793C12.1045 4.20393 13.0925 3.90793 13.0925 3.64393C13.0925 2.95193 11.7365 2.48393 9.02848 2.23993C8.76448 2.21993 8.27648 2.17993 7.56048 2.11593C7.64048 2.01593 8.22048 1.90393 9.30048 1.77993C10.2165 1.67993 10.8605 1.62793 11.2245 1.62793C16.0725 1.62793 19.1485 3.97993 20.4525 8.68793C20.6765 8.50393 20.7885 8.19193 20.7885 7.75993C20.7885 7.20393 20.6245 6.49993 20.3005 5.65193C20.1765 5.32393 19.9845 4.82793 19.7205 4.16393C21.3885 6.29193 22.2245 8.30793 22.2245 10.2119C22.2245 11.2159 21.9885 12.1239 21.5205 12.9439C21.2165 13.4959 20.6445 14.2039 19.8085 15.0639C18.9725 15.9239 18.4045 16.5879 18.0965 17.0599C19.2165 16.7559 19.9525 16.5199 20.2965 16.3559C21.0685 16.0119 21.7725 15.4919 22.4045 14.7959C22.4045 15.0599 22.2925 15.4599 22.0685 15.9879M8.75248 3.97993C8.75248 4.34793 8.54848 4.57993 8.14048 4.68393L7.34448 4.80793C7.06048 4.95193 6.64048 5.51193 6.09248 6.48793C6.03248 6.18393 5.94048 5.75593 5.81648 5.20393C5.63248 5.22393 5.32848 5.38793 4.90048 5.69193C4.71648 5.83593 4.42048 6.04793 4.01248 6.33193C4.13648 5.59993 4.54048 4.85593 5.23648 4.09993C5.96848 3.26393 6.68448 2.84793 7.37648 2.84793C8.29248 2.84793 8.75248 3.22393 8.75248 3.97993ZM14.0685 6.79193C14.0685 7.13993 13.8805 7.42793 13.5045 7.66393C13.1285 7.89993 12.7565 8.01593 12.3885 8.01593C11.9005 8.01593 11.4605 7.73993 11.0765 7.19193C10.6085 6.51993 10.1285 6.08393 9.64048 5.87593C9.74048 5.77593 9.86448 5.72393 10.0085 5.72393C10.1925 5.72393 10.5005 5.86793 10.9405 6.15193C11.3765 6.43593 11.6565 6.57993 11.7805 6.57993C11.8805 6.57993 12.0485 6.43593 12.2845 6.15193C12.5205 5.86793 12.7765 5.72393 13.0645 5.72393C13.7365 5.72393 14.0725 6.07993 14.0725 6.79193" fill="#200000"/></g>
</g>

</svg>
