<svg width="24" height="24" viewBox="0 0 24 24" fill="none" xmlns="http://www.w3.org/2000/svg" shape-rendering="geometricPrecision">
<g >
<path d="M12 24C18.6274 24 24 18.6274 24 12C24 5.37258 18.6274 0 12 0C5.37258 0 0 5.37258 0 12C0 18.6274 5.37258 24 12 24Z" fill="#AAE0FA"/>
<g id="scaled-glyph" transform="translate(12, 12) scale(0.9) translate(-12, -12)"><path d="M16.1974 20.0928C15.0485 21.262 13.6334 21.8465 11.9522 21.8465C10.0654 21.8465 8.56858 21.2009 7.46138 19.9089C6.41538 18.6784 5.89258 17.11 5.89258 15.2033C5.89258 13.1529 6.78466 10.8145 8.56858 8.18972C10.0238 6.03716 11.7362 4.15052 13.705 2.53052C13.4177 3.84308 13.2747 4.77572 13.2747 5.3294C13.2747 6.60116 13.674 7.84148 14.4737 9.0514C15.4582 10.4866 16.2061 11.5538 16.7193 12.2501C17.519 13.4605 17.9188 14.6393 17.9188 15.7869C17.9189 17.4892 17.345 18.9245 16.1972 20.0929M16.1663 13.5261C15.8588 12.8393 15.4998 12.3832 15.0896 12.1573C15.1511 12.2807 15.182 12.4549 15.182 12.6805C15.182 13.1113 15.0591 13.7261 14.8127 14.5257L14.4133 15.7562C14.4133 16.4738 14.7714 16.8328 15.4895 16.8328C16.2479 16.8328 16.6275 16.33 16.6275 15.3254C16.6275 14.8132 16.4739 14.2137 16.1663 13.5259" fill="#061922"/></g>
</g>

</svg>
