<svg width="24" height="24" viewBox="0 0 24 24" fill="none" xmlns="http://www.w3.org/2000/svg" shape-rendering="geometricPrecision">
<g >
<path d="M12 24C18.6274 24 24 18.6274 24 12C24 5.37258 18.6274 0 12 0C5.37258 0 0 5.37258 0 12C0 18.6274 5.37258 24 12 24Z" fill="#FFFBD5"/>
<g id="scaled-glyph" transform="translate(12, 12) scale(0.9) translate(-12, -12)"><path d="M23.4485 13.6961C21.8725 12.8081 20.8645 12.3641 20.4205 12.3641C20.0965 12.3641 19.8445 12.6121 19.6645 13.1081C19.4845 13.6041 19.1205 13.8481 18.5765 13.8481C18.3525 13.8481 17.9005 13.7681 17.2125 13.6081C16.8285 14.1921 16.6365 14.5681 16.6365 14.7281C16.6365 14.9521 16.8005 15.2121 17.1325 15.5161C17.4645 15.8201 17.7405 15.9681 17.9685 15.9681C18.1125 15.9681 18.3085 15.9401 18.5565 15.8761C18.8045 15.8161 18.9685 15.7841 19.0525 15.7841C19.3005 15.7841 19.4245 16.2401 19.4245 17.1481C19.4245 18.0161 19.2245 19.3481 18.8205 21.1441C18.2965 19.0841 17.7405 18.0561 17.1565 18.0561C17.0765 18.0561 16.9085 18.1161 16.6565 18.2401C16.4045 18.3601 16.2165 18.4201 16.0965 18.4201C15.5125 18.4201 14.9885 17.8841 14.5205 16.8161C13.5925 16.9561 13.1285 17.4321 13.1285 18.2401C13.1285 18.6441 13.3165 18.9681 13.6885 19.2081C14.0605 19.4521 14.2485 19.6241 14.2485 19.7241C14.2485 20.2681 13.4525 21.1081 11.8565 22.2361C11.0085 22.8401 10.4245 23.2641 10.1005 23.5081C10.3805 23.1441 10.6645 22.6721 10.9485 22.0841C11.2725 21.4201 11.4325 20.9041 11.4325 20.5401C11.4325 20.3401 11.2005 20.0561 10.7365 19.6921C10.2725 19.3281 10.0405 18.9441 10.0405 18.5401C10.0405 18.1961 10.1605 17.7721 10.4045 17.2681C10.1405 16.9641 9.82845 16.8121 9.46445 16.8121C8.65645 16.8121 8.25245 17.0761 8.25245 17.6001C8.25245 17.2361 8.25245 17.5081 8.25245 18.4161C8.27245 19.0841 7.76845 19.4161 6.73645 19.4161C5.94845 19.4161 4.62845 19.2321 2.76845 18.8721C4.86845 18.3481 5.91645 17.7401 5.91645 17.0561C5.91645 17.1361 5.87645 16.8961 5.79645 16.3281C5.71645 15.7041 6.16045 15.1361 7.12845 14.6321C6.94845 13.7041 6.46445 13.2401 5.67645 13.2401C5.55645 13.2401 5.33245 13.4521 5.01245 13.8761C4.68845 14.3001 4.38845 14.5121 4.10445 14.5121C3.62045 14.5121 2.99245 13.9881 2.22845 12.9361C1.86445 12.4121 1.30845 11.6361 0.564453 10.6041C1.02845 10.8481 1.49245 11.0881 1.95645 11.3321C2.56045 11.6161 3.04845 11.7561 3.40845 11.7561C3.69245 11.7561 3.96845 11.5081 4.24045 11.0121C4.51245 10.5161 4.87245 10.2681 5.31645 10.2681C5.37645 10.2681 5.78045 10.3881 6.52845 10.6321C6.91245 10.0481 7.10445 9.61209 7.10445 9.32809C7.10445 9.08409 6.95645 8.80809 6.66445 8.49609C6.37245 8.18409 6.10445 8.02809 5.86045 8.02809C5.76045 8.02809 5.60445 8.06009 5.39245 8.12009C5.18045 8.18009 5.02445 8.21209 4.92445 8.21209C4.56045 8.21209 4.38045 7.75609 4.38045 6.84809C4.38045 6.60409 4.61245 5.22409 5.07645 2.70009C5.05645 3.00409 5.18845 3.56809 5.46845 4.39609C5.81245 5.40409 6.21645 5.91209 6.68045 5.91209C6.76045 5.91209 6.92445 5.85209 7.16445 5.73209C7.40845 5.61209 7.59645 5.55209 7.74045 5.55209C8.20445 5.55209 8.58845 5.81609 8.89245 6.34009L9.34845 7.15609C9.77245 7.15609 10.1245 7.00409 10.4085 6.70409C10.6925 6.40009 10.8325 6.03609 10.8325 5.61209C10.8325 5.16809 10.6445 4.82809 10.2725 4.59609C9.89645 4.36409 9.71245 4.18809 9.71245 4.06809C9.71245 3.64409 10.3805 2.92809 11.7125 1.92009C12.7805 1.11209 13.4805 0.640094 13.8005 0.496094C12.9325 1.66809 12.4965 2.52409 12.4965 3.06809C12.4965 3.35209 12.6685 3.65209 13.0125 3.97609C13.4365 4.36009 13.6805 4.63209 13.7405 4.79209C13.9405 5.25609 13.9205 5.89209 13.6805 6.70009C14.2245 7.08409 14.6405 7.27609 14.9205 7.27609C15.5045 7.27609 15.7965 6.97209 15.7965 6.36809C15.7965 6.30809 15.7725 6.11609 15.7205 5.79209C15.6685 5.46809 15.6565 5.28809 15.6765 5.24809C15.7565 4.96409 16.3125 4.82409 17.3405 4.82409C17.9885 4.82409 19.3285 5.00409 21.3685 5.36809C20.9245 5.48809 20.2565 5.67209 19.3685 5.91209C18.5605 6.15609 18.1565 6.42809 18.1565 6.72809C18.1565 6.86809 18.2085 7.11209 18.3085 7.45609C18.4085 7.80009 18.4605 8.05209 18.4605 8.21209C18.4605 8.49609 18.2805 8.75609 17.9165 9.00009L16.8885 9.72809C17.1325 10.1721 17.2925 10.4361 17.3725 10.5161C17.5725 10.7601 17.8485 10.8801 18.1885 10.8801C18.4325 10.8801 18.6525 10.6681 18.8565 10.2441C19.0565 9.82009 19.3805 9.60809 19.8245 9.60809C20.3685 9.60809 20.9845 10.1121 21.6725 11.1241C22.0565 11.6921 22.6525 12.5481 23.4565 13.7001M16.7365 11.9441C16.7365 10.6521 16.2605 9.53209 15.3125 8.58409C14.3645 7.63609 13.2445 7.16009 11.9525 7.16009C10.6405 7.16009 9.50845 7.62809 8.56045 8.56809C7.61245 9.50809 7.12845 10.6321 7.10845 11.9441C7.08845 13.2361 7.56845 14.3521 8.54845 15.2881C9.52845 16.2281 10.6645 16.6961 11.9565 16.6961C13.3285 16.6961 14.4765 16.2481 15.3925 15.3481C16.3125 14.4521 16.7605 13.3161 16.7405 11.9441M16.2845 11.9441C16.2845 13.1761 15.8725 14.1961 15.0445 15.0001C14.2165 15.8081 13.1885 16.2121 11.9565 16.2121C10.7645 16.2121 9.74445 15.8001 8.90045 14.9721C8.05245 14.1441 7.62845 13.1361 7.62845 11.9441C7.62845 10.7721 8.05645 9.76809 8.91645 8.93209C9.77645 8.09609 10.7885 7.67609 11.9605 7.67609C13.1325 7.67609 14.1445 8.10009 15.0045 8.94809C15.8605 9.79609 16.2925 10.7961 16.2925 11.9441" fill="#211D15"/></g>
</g>

</svg>
