<svg width="32" height="32" viewBox="0 0 32 32" fill="none" xmlns="http://www.w3.org/2000/svg" shape-rendering="geometricPrecision">
<g >
<g transform="translate(16, 16) scale(0.9583) translate(-16, -16)"><path d="M16 28C22.6274 28 28 22.6274 28 16C28 9.37258 22.6274 4 16 4C9.37258 4 4 9.37258 4 16C4 22.6274 9.37258 28 16 28Z" fill="black" fill-opacity="0.25"/></g>
<path d="M25.7682 15.668C25.7682 16.992 25.2882 17.896 24.3242 18.376C24.0442 18.516 23.1602 18.708 21.6762 18.948C20.7122 19.108 20.2322 19.48 20.2322 20.06V22.496C20.2322 22.596 20.2642 22.908 20.3242 23.428L20.4162 24.392C20.4162 24.692 20.3442 25.184 20.2042 25.868C19.8242 25.948 19.3802 26.04 18.8802 26.14C18.7202 25.536 18.6402 25.128 18.6402 24.904C18.6402 24.804 18.6642 24.652 18.7162 24.452C18.7642 24.252 18.7922 24.1 18.7922 24C18.7922 23.86 18.6682 23.468 18.4162 22.828H17.9482C17.8882 22.928 17.8642 23.06 17.8842 23.22C17.9642 23.56 17.9962 23.852 17.9762 24.092C17.6362 24.332 17.1642 24.656 16.5602 25.056C16.4202 25.016 16.3682 24.996 16.4082 24.996V22.86C16.3682 22.76 16.2682 22.72 16.1082 22.74H15.7482L15.3882 25.568C15.1082 25.588 14.7642 25.588 14.3642 25.568C14.2242 24.908 13.9722 23.924 13.6122 22.62H13.3722C13.1522 23.324 13.0322 23.704 13.0122 23.764C13.0122 23.844 13.0362 24 13.0882 24.232C13.1362 24.464 13.1642 24.62 13.1642 24.7C13.1642 24.76 13.1442 24.912 13.1042 25.152L13.0122 25.876C12.9722 25.916 12.9202 25.936 12.8602 25.936C12.2602 25.936 11.8562 25.784 11.6562 25.484C11.4562 25.184 11.3762 24.76 11.4162 24.22L11.6562 20.608C11.6562 20.548 11.6762 20.468 11.7162 20.368C11.7562 20.268 11.7762 20.196 11.7762 20.156C11.7762 19.996 11.6042 19.676 11.2642 19.192C11.2042 19.172 10.8922 19.1 10.3322 18.98C9.99223 18.9 9.32023 18.76 8.31623 18.56C6.93223 18.3 6.24023 17.188 6.24023 15.22C6.24023 12.292 7.44423 9.85201 9.85223 7.90801C9.95223 8.44801 10.1242 9.17201 10.3642 10.076C10.5442 10.116 10.9362 10.208 11.5362 10.348C11.6562 10.388 12.2682 10.608 13.3722 11.012C12.8082 10.672 12.0762 10.12 11.1762 9.35601C10.8362 8.95601 10.6642 8.28401 10.6642 7.34001C10.6642 7.12001 11.0442 6.86001 11.8082 6.55601C12.4882 6.27601 13.0042 6.11601 13.3442 6.07601C14.4282 5.93601 15.2602 5.86401 15.8442 5.86401C18.3522 5.86401 20.3802 6.50801 21.9242 7.79201C21.4242 8.37601 20.5602 8.99601 19.3362 9.65601C19.8202 9.67601 20.5202 9.48801 21.4442 9.08401C22.3682 8.68401 22.7602 8.48401 22.6162 8.48401C22.7762 8.48401 23.1002 8.80401 23.5802 9.44801C23.9402 9.92801 24.2322 10.36 24.4522 10.744C25.0922 11.888 25.5242 13.124 25.7482 14.448C25.7482 14.912 25.7562 15.24 25.7802 15.44V15.68L25.7682 15.668ZM14.2402 16.208C14.2402 15.344 13.8642 14.528 13.1122 13.756C12.3602 12.984 11.5522 12.596 10.6882 12.596C9.92423 12.596 9.25223 12.92 8.67223 13.564C8.08823 14.212 7.80023 14.928 7.80023 15.716C7.80023 16.404 8.13223 16.848 8.79223 17.048C9.21223 17.168 9.80423 17.24 10.5682 17.26H12.2242C13.5682 17.28 14.2402 16.928 14.2402 16.208ZM17.5202 19.94V19.008C17.3802 18.748 17.2402 18.476 17.1002 18.196C16.9802 17.796 16.7602 17.232 16.4362 16.512L16.1042 20.032C16.1042 20.312 16.0442 20.452 15.9242 20.452C15.8442 20.452 15.7842 20.432 15.7442 20.392C15.6042 18.264 15.5322 17.344 15.5322 17.624V16.572C15.4922 16.512 15.4442 16.48 15.3842 16.48C14.7002 17.184 14.3602 18.316 14.3602 19.88C14.3602 20.744 14.4402 21.276 14.6002 21.476C14.7602 21.436 14.9402 21.364 15.1402 21.264C15.2202 21.224 15.4522 21.204 15.8322 21.204C16.2122 21.204 16.6762 21.324 17.2162 21.564C17.4162 21.564 17.5162 21.024 17.5162 19.94M24.3202 15.748C24.3202 14.94 24.0202 14.22 23.4162 13.584C22.8122 12.948 22.1202 12.632 21.3402 12.632C20.4962 12.632 19.7082 13.016 18.9762 13.792C18.2442 14.564 17.8762 15.372 17.8762 16.216C17.8762 16.92 18.2162 17.268 18.9002 17.268H22.3602C23.6642 17.248 24.3162 16.744 24.3162 15.752" fill="white" fill-opacity="0.25"/>
</g>
<path d="M16 30C23.732 30 30 23.732 30 16C30 8.26801 23.732 2 16 2C8.26801 2 2 8.26801 2 16C2 23.732 8.26801 30 16 30Z" stroke="white" stroke-opacity="0.4" stroke-width="1.5"/>

</svg>
