<svg width="32" height="32" viewBox="0 0 32 32" fill="none" xmlns="http://www.w3.org/2000/svg" shape-rendering="geometricPrecision">
<g >
<g transform="translate(16, 16) scale(0.9583) translate(-16, -16)"><path d="M16 28C22.6274 28 28 22.6274 28 16C28 9.37258 22.6274 4 16 4C9.37258 4 4 9.37258 4 16C4 22.6274 9.37258 28 16 28Z" fill="black" fill-opacity="0.25"/></g>
<path d="M20.1974 24.0928C19.0485 25.262 17.6334 25.8465 15.9522 25.8465C14.0654 25.8465 12.5686 25.2009 11.4614 23.9089C10.4154 22.6784 9.89258 21.11 9.89258 19.2033C9.89258 17.1529 10.7847 14.8145 12.5686 12.1897C14.0238 10.0372 15.7362 8.15052 17.705 6.53052C17.4177 7.84308 17.2747 8.77572 17.2747 9.3294C17.2747 10.6012 17.674 11.8415 18.4737 13.0514C19.4582 14.4866 20.2061 15.5538 20.7193 16.2501C21.519 17.4605 21.9188 18.6393 21.9188 19.7869C21.9189 21.4892 21.345 22.9245 20.1972 24.0929M20.1663 17.5261C19.8588 16.8393 19.4998 16.3832 19.0896 16.1573C19.1511 16.2807 19.182 16.4549 19.182 16.6805C19.182 17.1113 19.0591 17.7261 18.8127 18.5257L18.4133 19.7562C18.4133 20.4738 18.7714 20.8328 19.4895 20.8328C20.2479 20.8328 20.6275 20.33 20.6275 19.3254C20.6275 18.8132 20.4739 18.2137 20.1663 17.5259" fill="white" fill-opacity="0.25"/>
</g>
<path d="M16 30C23.732 30 30 23.732 30 16C30 8.26801 23.732 2 16 2C8.26801 2 2 8.26801 2 16C2 23.732 8.26801 30 16 30Z" stroke="white" stroke-opacity="0.4" stroke-width="1.5"/>

</svg>
