<svg width="32" height="32" viewBox="0 0 32 32" fill="none" xmlns="http://www.w3.org/2000/svg" shape-rendering="geometricPrecision">
<g >
<g transform="translate(16, 16) scale(0.9583) translate(-16, -16)"><path d="M16 28C22.6274 28 28 22.6274 28 16C28 9.37258 22.6274 4 16 4C9.37258 4 4 9.37258 4 16C4 22.6274 9.37258 28 16 28Z" fill="white" fill-opacity="0.25"/></g>
<path d="M16.0004 6.3999C17.9832 10.6214 21.3789 14.0171 25.6004 15.9999C21.3789 17.9827 17.9832 21.3784 16.0004 25.5999C14.0176 21.3784 10.6218 17.9827 6.40039 15.9999C10.6218 14.0171 14.0176 10.6214 16.0004 6.3999ZM16.0004 9.9999C14.7978 12.6639 12.6644 14.7973 10.0004 15.9999C12.6644 17.2025 14.7978 19.3359 16.0004 21.9999C17.2029 19.3359 19.3364 17.2025 22.0004 15.9999C19.3364 14.7973 17.2029 12.6639 16.0004 9.9999Z" fill="black" fill-opacity="0.25"/>
</g>
<path d="M16 30C23.732 30 30 23.732 30 16C30 8.26801 23.732 2 16 2C8.26801 2 2 8.26801 2 16C2 23.732 8.26801 30 16 30Z" stroke="black" stroke-opacity="0.4" stroke-width="1.5"/>

</svg>
