<svg width="32" height="32" viewBox="0 0 32 32" fill="none" xmlns="http://www.w3.org/2000/svg" shape-rendering="geometricPrecision">
<path fill-rule="evenodd" clip-rule="evenodd" d="M28 16C28 22.6274 22.6274 28 16 28C9.37258 28 4 22.6274 4 16C4 9.37258 9.37258 4 16 4C22.6274 4 28 9.37258 28 16ZM16 25.24C21.1031 25.24 25.24 21.1031 25.24 16C25.24 10.8969 21.1031 6.76 16 6.76C10.8969 6.76 6.76 10.8969 6.76 16C6.76 21.1031 10.8969 25.24 16 25.24Z" fill="url(#paint0_linear_147_577)"/>
<path d="M22.6 16C22.6 19.6451 19.6451 22.6 16 22.6C12.3549 22.6 9.4 19.6451 9.4 16C9.4 12.3549 12.3549 9.4 16 9.4C19.6451 9.4 22.6 12.3549 22.6 16Z" fill="url(#paint1_linear_147_577)"/>
<path d="M16 30C23.732 30 30 23.732 30 16C30 8.26801 23.732 2 16 2C8.26801 2 2 8.26801 2 16C2 23.732 8.26801 30 16 30Z" stroke="#D6BB83" stroke-width="1.5"/>

</svg>
