<svg width="24" height="24" viewBox="0 0 24 24" fill="none" xmlns="http://www.w3.org/2000/svg" shape-rendering="geometricPrecision">
<path d="M18.6 12C18.6 15.6451 15.6451 18.6 12 18.6C8.35492 18.6 5.4 15.6451 5.4 12C5.4 8.35492 8.35492 5.4 12 5.4C15.6451 5.4 18.6 8.35492 18.6 12Z" fill="url(#paint0_linear_147_646)"/>
<g id="scaled-glyph" transform="translate(12, 12) scale(0.9) translate(-12, -12)"><path fill-rule="evenodd" clip-rule="evenodd" d="M12 24C18.6274 24 24 18.6274 24 12C24 5.37258 18.6274 0 12 0C5.37258 0 0 5.37258 0 12C0 18.6274 5.37258 24 12 24ZM12 21.24C17.1031 21.24 21.24 17.1031 21.24 12C21.24 6.89689 17.1031 2.76 12 2.76C6.89689 2.76 2.76 6.89689 2.76 12C2.76 17.1031 6.89689 21.24 12 21.24ZM18.6 12C18.6 15.6451 15.6451 18.6 12 18.6C8.35492 18.6 5.4 15.6451 5.4 12C5.4 8.35492 8.35492 5.4 12 5.4C15.6451 5.4 18.6 8.35492 18.6 12Z" fill="url(#paint1_linear_147_646)"/></g>

</svg>
