<svg width="32" height="32" viewBox="0 0 32 32" fill="none" xmlns="http://www.w3.org/2000/svg" shape-rendering="geometricPrecision">
<g transform="translate(16, 16) scale(0.9583) translate(-16, -16)"><path d="M16 28C22.6274 28 28 22.6274 28 16C28 9.37258 22.6274 4 16 4C9.37258 4 4 9.37258 4 16C4 22.6274 9.37258 28 16 28Z" fill="black" fill-opacity="0.25"/></g>
<path fill-rule="evenodd" clip-rule="evenodd" d="M25.2398 16C25.2398 21.1031 21.1029 25.24 15.9998 25.24C10.8967 25.24 6.75977 21.1031 6.75977 16C6.75977 10.8969 10.8967 6.76001 15.9998 6.76001C21.1029 6.76001 25.2398 10.8969 25.2398 16ZM15.9998 22.6C19.6448 22.6 22.5998 19.6451 22.5998 16C22.5998 12.3549 19.6448 9.40001 15.9998 9.40001C12.3547 9.40001 9.39977 12.3549 9.39977 16C9.39977 19.6451 12.3547 22.6 15.9998 22.6Z" fill="white" fill-opacity="0.25"/>
<path d="M16 30C23.732 30 30 23.732 30 16C30 8.26801 23.732 2 16 2C8.26801 2 2 8.26801 2 16C2 23.732 8.26801 30 16 30Z" stroke="white" stroke-opacity="0.4" stroke-width="1.5"/>
</svg>
