<svg width="32" height="32" viewBox="0 0 32 32" fill="none" xmlns="http://www.w3.org/2000/svg" shape-rendering="geometricPrecision">
<g >
<g transform="translate(16, 16) scale(0.9583) translate(-16, -16)"><path d="M16 28C22.6274 28 28 22.6274 28 16C28 9.37258 22.6274 4 16 4C9.37258 4 4 9.37258 4 16C4 22.6274 9.37258 28 16 28Z" fill="black" fill-opacity="0.25"/></g>
<path d="M26.5039 17.4961C26.5039 17.8961 26.3479 18.2561 26.0399 18.5761C25.7319 18.8961 25.3759 19.0561 24.9759 19.0561C24.3359 19.0561 23.8679 18.7561 23.5679 18.1561L22.1599 18.0961C21.8599 18.0961 21.2679 18.2281 20.3919 18.4881C19.4519 18.7481 18.9119 18.9561 18.7719 19.1161C18.5519 19.3561 18.3719 19.9161 18.2319 20.7961C18.1119 21.5161 18.0519 22.0441 18.0519 22.3841C18.0519 22.9241 18.1359 23.3201 18.3079 23.5681C18.4799 23.8161 18.8279 24.0281 19.3559 24.1961C19.8839 24.3641 20.2119 24.4601 20.3319 24.4801C20.4119 24.4801 20.5399 24.4721 20.7239 24.4521H21.0839C21.3439 24.4521 21.6119 24.4921 21.8919 24.5721C22.2919 24.6921 22.4639 24.8521 22.4039 25.0521C22.1239 25.0121 21.6359 25.0721 20.9359 25.2321L21.7759 25.6521C21.7759 25.8921 21.4359 26.0121 20.7559 26.0121C20.5759 26.0121 20.3319 25.9721 20.0199 25.8921C19.7119 25.8121 19.5039 25.7721 19.4039 25.7721H19.0159C18.9959 25.9721 18.9359 26.2721 18.8359 26.6721C18.4959 26.6521 18.0959 26.4521 17.6359 26.0721C17.1759 25.6921 16.8879 25.5041 16.7679 25.5041C16.6479 25.5041 16.4759 25.6961 16.2599 26.0721C16.0399 26.4521 15.9319 26.7121 15.9319 26.8521C15.6719 26.7121 15.4519 26.4521 15.2719 26.0721C15.1919 25.8121 15.1039 25.5521 15.0039 25.2921C14.8039 25.3121 14.4359 25.7321 13.8959 26.5521H13.7439C13.7039 26.4921 13.5519 26.0721 13.2959 25.2921C12.6759 25.0921 12.0959 24.9921 11.5559 24.9921C11.2959 24.9921 10.8959 25.0521 10.3559 25.1721L9.51585 25.1121C9.63585 24.9921 9.98385 24.7641 10.5639 24.4241C11.2439 24.0241 11.7639 23.8241 12.1239 23.8241C12.1839 23.8241 12.2639 23.8361 12.3639 23.8561C12.4639 23.8761 12.5439 23.8881 12.6039 23.8881C12.7439 23.8881 12.9679 23.8121 13.2799 23.6641C13.5879 23.5161 13.7679 23.3801 13.8199 23.2601C13.8719 23.1401 13.8959 22.8281 13.8959 22.3321C13.8959 21.1921 13.5959 20.3441 12.9959 19.7841C12.4759 19.2841 11.6159 18.9241 10.4159 18.7041C10.0959 19.8441 9.19585 20.4121 7.71985 20.4121C7.23985 20.4121 6.75985 20.1241 6.27985 19.5441C5.78785 18.9521 5.54785 18.4241 5.54785 17.9441C5.54785 17.2041 5.85585 16.5961 6.47585 16.1161C5.97585 15.5961 5.72785 15.0681 5.72785 14.5281C5.72785 14.0281 5.88385 13.5881 6.19185 13.2081C6.49985 12.8281 6.90785 12.6081 7.40785 12.5481C7.36785 11.9081 7.57585 11.4681 8.03585 11.2281C7.81585 11.0081 7.70785 10.6201 7.70785 10.0601C7.70785 9.40013 7.92785 8.85213 8.36785 8.41213C8.80785 7.97213 9.35585 7.75213 10.0159 7.75213C10.7359 7.75213 11.3239 8.00413 11.7839 8.50413C12.3639 6.52413 13.6119 5.53613 15.5319 5.53613C16.5319 5.53613 17.4119 5.93613 18.1719 6.73613C18.4519 7.03613 18.5919 7.19613 18.5919 7.21613C18.3519 7.21613 18.4719 7.17213 18.9519 7.08013C19.4319 6.99213 19.7799 6.94413 19.9999 6.94413C20.7799 6.94413 21.4679 7.23213 22.0679 7.81213C22.5879 8.33213 22.9479 8.99213 23.1479 9.79213C23.2879 9.81213 23.5079 9.87213 23.8079 9.97213C24.2479 10.1921 24.4679 10.5721 24.4679 11.1121C24.4679 11.2121 24.3879 11.4041 24.2279 11.6801C25.5079 12.4001 26.1479 13.4001 26.1479 14.6801C26.1479 15.0401 26.0079 15.5401 25.7279 16.1801C26.2479 16.4801 26.5079 16.9201 26.5079 17.5001M14.1559 18.8201V18.4321C14.1559 17.9721 13.9319 17.5521 13.4799 17.1721C13.0319 16.7921 12.5759 16.6041 12.1159 16.6041C11.5559 16.6041 11.0359 16.7321 10.5559 16.9921C11.6159 16.9321 12.8159 17.5441 14.1519 18.8201M13.6119 15.1041C13.3119 14.7641 13.0519 14.4161 12.8319 14.0561C11.9919 14.2761 11.5719 14.5241 11.5719 14.8041C11.8119 14.7841 12.1599 14.8281 12.6199 14.9401C13.0799 15.0521 13.4079 15.1041 13.6119 15.1041ZM15.4399 14.1761V12.8561C14.9599 12.7761 14.6679 12.7361 14.5719 12.7361V13.1841L15.4399 14.1721M19.3359 13.3321C19.0959 13.2321 18.6479 13.0321 17.9879 12.7321V15.3121C18.9279 14.7721 19.3759 14.1121 19.3359 13.3321ZM20.9839 16.8721L20.3239 16.0641C19.9239 16.3441 19.5199 16.6281 19.1079 16.9201C18.6959 17.2081 18.3439 17.5361 18.0439 17.8961C18.9439 17.4161 19.9239 17.0761 20.9799 16.8761" fill="white" fill-opacity="0.25"/>
</g>
<path d="M16 30C23.732 30 30 23.732 30 16C30 8.26801 23.732 2 16 2C8.26801 2 2 8.26801 2 16C2 23.732 8.26801 30 16 30Z" stroke="white" stroke-opacity="0.4" stroke-width="1.5"/>

</svg>
