<svg width="32" height="32" viewBox="0 0 32 32" fill="none" xmlns="http://www.w3.org/2000/svg" shape-rendering="geometricPrecision">
<g >
<g transform="translate(16, 16) scale(0.9583) translate(-16, -16)"><path d="M16 28C22.6274 28 28 22.6274 28 16C28 9.37258 22.6274 4 16 4C9.37258 4 4 9.37258 4 16C4 22.6274 9.37258 28 16 28Z" fill="#CCC2C0"/></g>
<path d="M12.7612 8.05211L12.7624 8.05149C13.2719 7.85634 13.569 8.26517 13.6888 8.45785C14.3527 9.39347 14.6238 10.528 15.1055 11.5562C15.757 12.9223 16.4679 14.3124 17.6011 15.3469C17.7499 15.5068 18.0451 15.6519 18.1742 15.5006C18.6485 14.9448 19.032 14.3205 19.3772 13.6776C19.6002 13.2342 20.0942 12.9507 20.5889 12.9667C20.9805 12.9556 21.3337 13.207 21.5517 13.517C22.0513 14.2772 22.2916 15.1628 22.6257 16.0009C23.037 16.884 23.4847 17.7758 24.1813 18.473C24.5945 18.8584 25.0428 19.2042 25.4288 19.6186C25.6406 19.8064 25.7598 20.0682 25.8525 20.3294L25.8617 20.356C25.9538 21.0829 25.5449 21.4275 25.3109 21.5936C24.8545 21.9574 24.3098 22.1865 23.7614 22.3705C21.9124 23.027 19.9553 23.3722 18.0013 23.4562C14.8196 23.5927 13.569 23.4587 13.2447 23.4031C12.0572 23.2969 10.8776 23.0986 9.71779 22.8213C8.76488 22.5589 7.79159 22.2933 6.94243 21.7702C6.61141 21.5732 5.98025 21.3324 6.15502 20.3381L6.1649 20.3251C6.34338 19.6705 6.84361 19.1733 7.29938 18.6923C7.63596 18.234 8.10655 17.8993 8.44313 17.4417C9.24226 16.414 9.82896 15.2382 10.289 14.0259C10.7102 12.963 10.9566 11.8409 11.3309 10.7614C11.518 10.0654 11.7959 9.39532 12.1325 8.75861C12.2826 8.47761 12.4901 8.22626 12.7612 8.05396V8.05211Z" fill="#130C0E"/>
</g>
<path d="M16 30C23.732 30 30 23.732 30 16C30 8.26801 23.732 2 16 2C8.26801 2 2 8.26801 2 16C2 23.732 8.26801 30 16 30Z" stroke="#130C0E" stroke-width="1.5"/>

</svg>
