<svg width="32" height="32" viewBox="0 0 32 32" fill="none" xmlns="http://www.w3.org/2000/svg" shape-rendering="geometricPrecision">
<g >
<g transform="translate(16, 16) scale(0.9583) translate(-16, -16)"><path d="M16 28C22.6274 28 28 22.6274 28 16C28 9.37258 22.6274 4 16 4C9.37258 4 4 9.37258 4 16C4 22.6274 9.37258 28 16 28Z" fill="#F9AA8F"/></g>
<path d="M26.0725 19.9879C25.1765 22.1279 23.3925 23.1959 20.7285 23.1959C20.2405 23.1959 19.7085 23.2559 19.1405 23.3799C18.2845 23.5639 17.8565 23.8199 17.8565 24.1439C17.8565 24.2439 17.9285 24.3639 18.0685 24.4959C18.2125 24.6279 18.3325 24.6959 18.4365 24.6959C17.9285 24.6959 18.2725 24.7119 19.4765 24.7399C20.6805 24.7719 21.4325 24.7839 21.7365 24.7839C19.9645 25.8239 17.0005 26.2999 12.8445 26.2199C11.4805 26.1999 10.3085 25.5999 9.33248 24.4159C8.37248 23.2959 7.89648 22.0439 7.89648 20.6599C7.89648 19.1959 8.38848 17.9479 9.38048 16.9159C10.3685 15.8879 11.5965 15.3719 13.0605 15.3719C13.3845 15.3719 13.8205 15.4439 14.3605 15.5839C14.9005 15.7279 15.2605 15.7959 15.4445 15.7959C16.1965 15.7959 17.1365 15.4839 18.2565 14.8639C19.3765 14.2439 19.9085 13.9319 19.8445 13.9319C19.6405 16.0719 18.9285 17.5079 17.7045 18.2399C16.8285 18.7479 16.3925 19.2479 16.3925 19.7359C16.3925 20.0399 16.5765 20.2879 16.9405 20.4679C17.2245 20.6119 17.5405 20.6839 17.8885 20.6839C18.4165 20.6839 18.9365 20.3599 19.4485 19.7079C19.9565 19.0559 20.1805 18.4639 20.1205 17.9359C20.0605 17.3239 20.1005 16.5919 20.2445 15.7359C20.2845 15.4919 20.4325 15.1919 20.6885 14.8359C20.9445 14.4799 21.1725 14.2599 21.3765 14.1799C21.3765 14.3639 21.3125 14.6679 21.1765 15.0959C21.0445 15.5239 20.9765 15.8399 20.9765 16.0439C20.9765 16.4919 21.0965 16.8399 21.3445 17.0839C21.7125 16.9399 22.0365 16.4839 22.3205 15.7079C22.5645 15.1159 22.7085 14.5479 22.7485 13.9959C21.8925 13.9559 21.0725 13.5679 20.2885 12.8359C19.5045 12.1039 19.1125 11.3079 19.1125 10.4519C19.1125 10.3079 19.1325 10.1679 19.1725 10.0239C19.2925 10.2079 19.4765 10.4919 19.7205 10.8799C20.0685 11.3879 20.3325 11.6439 20.5165 11.6439C20.7605 11.6439 20.8845 11.3879 20.8845 10.8799C20.8845 10.2279 20.7125 9.63593 20.3645 9.10793C19.9765 8.47593 19.4765 8.15993 18.8685 8.15993C18.5845 8.15993 18.1565 8.31193 17.5845 8.61993C17.0125 8.92393 16.4925 9.07993 16.0245 9.07993C15.8805 9.07993 15.2485 8.89593 14.1285 8.52793C16.1045 8.20393 17.0925 7.90793 17.0925 7.64393C17.0925 6.95193 15.7365 6.48393 13.0285 6.23993C12.7645 6.21993 12.2765 6.17993 11.5605 6.11593C11.6405 6.01593 12.2205 5.90393 13.3005 5.77993C14.2165 5.67993 14.8605 5.62793 15.2245 5.62793C20.0725 5.62793 23.1485 7.97993 24.4525 12.6879C24.6765 12.5039 24.7885 12.1919 24.7885 11.7599C24.7885 11.2039 24.6245 10.4999 24.3005 9.65193C24.1765 9.32393 23.9845 8.82793 23.7205 8.16393C25.3885 10.2919 26.2245 12.3079 26.2245 14.2119C26.2245 15.2159 25.9885 16.1239 25.5205 16.9439C25.2165 17.4959 24.6445 18.2039 23.8085 19.0639C22.9725 19.9239 22.4045 20.5879 22.0965 21.0599C23.2165 20.7559 23.9525 20.5199 24.2965 20.3559C25.0685 20.0119 25.7725 19.4919 26.4045 18.7959C26.4045 19.0599 26.2925 19.4599 26.0685 19.9879M12.7525 7.97993C12.7525 8.34793 12.5485 8.57993 12.1405 8.68393L11.3445 8.80793C11.0605 8.95193 10.6405 9.51193 10.0925 10.4879C10.0325 10.1839 9.94048 9.75593 9.81648 9.20393C9.63248 9.22393 9.32848 9.38793 8.90048 9.69193C8.71648 9.83593 8.42048 10.0479 8.01248 10.3319C8.13648 9.59993 8.54048 8.85593 9.23648 8.09993C9.96848 7.26393 10.6845 6.84793 11.3765 6.84793C12.2925 6.84793 12.7525 7.22393 12.7525 7.97993ZM18.0685 10.7919C18.0685 11.1399 17.8805 11.4279 17.5045 11.6639C17.1285 11.8999 16.7565 12.0159 16.3885 12.0159C15.9005 12.0159 15.4605 11.7399 15.0765 11.1919C14.6085 10.5199 14.1285 10.0839 13.6405 9.87593C13.7405 9.77593 13.8645 9.72393 14.0085 9.72393C14.1925 9.72393 14.5005 9.86793 14.9405 10.1519C15.3765 10.4359 15.6565 10.5799 15.7805 10.5799C15.8805 10.5799 16.0485 10.4359 16.2845 10.1519C16.5205 9.86793 16.7765 9.72393 17.0645 9.72393C17.7365 9.72393 18.0725 10.0799 18.0725 10.7919" fill="#200000"/>
</g>
<path d="M16 30C23.732 30 30 23.732 30 16C30 8.26801 23.732 2 16 2C8.26801 2 2 8.26801 2 16C2 23.732 8.26801 30 16 30Z" stroke="#200000" stroke-width="1.5"/>
<path d="M16 30C23.732 30 30 23.732 30 16C30 8.26801 23.732 2 16 2C8.26801 2 2 8.26801 2 16C2 23.732 8.26801 30 16 30Z" stroke="#F9AA8F" stroke-opacity="0.4" stroke-width="1.5"/>

</svg>
