<svg width="32" height="32" viewBox="0 0 32 32" fill="none" xmlns="http://www.w3.org/2000/svg" shape-rendering="geometricPrecision">
<g >
<g transform="translate(16, 16) scale(0.9583) translate(-16, -16)"><path d="M16 28C22.6274 28 28 22.6274 28 16C28 9.37258 22.6274 4 16 4C9.37258 4 4 9.37258 4 16C4 22.6274 9.37258 28 16 28Z" fill="#FFFBD5"/></g>
<path d="M27.4485 17.6961C25.8725 16.8081 24.8645 16.3641 24.4205 16.3641C24.0965 16.3641 23.8445 16.6121 23.6645 17.1081C23.4845 17.6041 23.1205 17.8481 22.5765 17.8481C22.3525 17.8481 21.9005 17.7681 21.2125 17.6081C20.8285 18.1921 20.6365 18.5681 20.6365 18.7281C20.6365 18.9521 20.8005 19.2121 21.1325 19.5161C21.4645 19.8201 21.7405 19.9681 21.9685 19.9681C22.1125 19.9681 22.3085 19.9401 22.5565 19.8761C22.8045 19.8161 22.9685 19.7841 23.0525 19.7841C23.3005 19.7841 23.4245 20.2401 23.4245 21.1481C23.4245 22.0161 23.2245 23.3481 22.8205 25.1441C22.2965 23.0841 21.7405 22.0561 21.1565 22.0561C21.0765 22.0561 20.9085 22.1161 20.6565 22.2401C20.4045 22.3601 20.2165 22.4201 20.0965 22.4201C19.5125 22.4201 18.9885 21.8841 18.5205 20.8161C17.5925 20.9561 17.1285 21.4321 17.1285 22.2401C17.1285 22.6441 17.3165 22.9681 17.6885 23.2081C18.0605 23.4521 18.2485 23.6241 18.2485 23.7241C18.2485 24.2681 17.4525 25.1081 15.8565 26.2361C15.0085 26.8401 14.4245 27.2641 14.1005 27.5081C14.3805 27.1441 14.6645 26.6721 14.9485 26.0841C15.2725 25.4201 15.4325 24.9041 15.4325 24.5401C15.4325 24.3401 15.2005 24.0561 14.7365 23.6921C14.2725 23.3281 14.0405 22.9441 14.0405 22.5401C14.0405 22.1961 14.1605 21.7721 14.4045 21.2681C14.1405 20.9641 13.8285 20.8121 13.4645 20.8121C12.6565 20.8121 12.2525 21.0761 12.2525 21.6001C12.2525 21.2361 12.2525 21.5081 12.2525 22.4161C12.2725 23.0841 11.7685 23.4161 10.7365 23.4161C9.94845 23.4161 8.62845 23.2321 6.76845 22.8721C8.86845 22.3481 9.91645 21.7401 9.91645 21.0561C9.91645 21.1361 9.87645 20.8961 9.79645 20.3281C9.71645 19.7041 10.1605 19.1361 11.1285 18.6321C10.9485 17.7041 10.4645 17.2401 9.67645 17.2401C9.55645 17.2401 9.33245 17.4521 9.01245 17.8761C8.68845 18.3001 8.38845 18.5121 8.10445 18.5121C7.62045 18.5121 6.99245 17.9881 6.22845 16.9361C5.86445 16.4121 5.30845 15.6361 4.56445 14.6041C5.02845 14.8481 5.49245 15.0881 5.95645 15.3321C6.56045 15.6161 7.04845 15.7561 7.40845 15.7561C7.69245 15.7561 7.96845 15.5081 8.24045 15.0121C8.51245 14.5161 8.87245 14.2681 9.31645 14.2681C9.37645 14.2681 9.78045 14.3881 10.5285 14.6321C10.9125 14.0481 11.1045 13.6121 11.1045 13.3281C11.1045 13.0841 10.9565 12.8081 10.6645 12.4961C10.3725 12.1841 10.1045 12.0281 9.86045 12.0281C9.76045 12.0281 9.60445 12.0601 9.39245 12.1201C9.18045 12.1801 9.02445 12.2121 8.92445 12.2121C8.56045 12.2121 8.38045 11.7561 8.38045 10.8481C8.38045 10.6041 8.61245 9.22409 9.07645 6.70009C9.05645 7.00409 9.18845 7.56809 9.46845 8.39609C9.81245 9.40409 10.2165 9.91209 10.6805 9.91209C10.7605 9.91209 10.9245 9.85209 11.1645 9.73209C11.4085 9.61209 11.5965 9.55209 11.7405 9.55209C12.2045 9.55209 12.5885 9.81609 12.8925 10.3401L13.3485 11.1561C13.7725 11.1561 14.1245 11.0041 14.4085 10.7041C14.6925 10.4001 14.8325 10.0361 14.8325 9.61209C14.8325 9.16809 14.6445 8.82809 14.2725 8.59609C13.8965 8.36409 13.7125 8.18809 13.7125 8.06809C13.7125 7.64409 14.3805 6.92809 15.7125 5.92009C16.7805 5.11209 17.4805 4.64009 17.8005 4.49609C16.9325 5.66809 16.4965 6.52409 16.4965 7.06809C16.4965 7.35209 16.6685 7.65209 17.0125 7.97609C17.4365 8.36009 17.6805 8.63209 17.7405 8.79209C17.9405 9.25609 17.9205 9.89209 17.6805 10.7001C18.2245 11.0841 18.6405 11.2761 18.9205 11.2761C19.5045 11.2761 19.7965 10.9721 19.7965 10.3681C19.7965 10.3081 19.7725 10.1161 19.7205 9.79209C19.6685 9.46809 19.6565 9.28809 19.6765 9.24809C19.7565 8.96409 20.3125 8.82409 21.3405 8.82409C21.9885 8.82409 23.3285 9.00409 25.3685 9.36809C24.9245 9.48809 24.2565 9.67209 23.3685 9.91209C22.5605 10.1561 22.1565 10.4281 22.1565 10.7281C22.1565 10.8681 22.2085 11.1121 22.3085 11.4561C22.4085 11.8001 22.4605 12.0521 22.4605 12.2121C22.4605 12.4961 22.2805 12.7561 21.9165 13.0001L20.8885 13.7281C21.1325 14.1721 21.2925 14.4361 21.3725 14.5161C21.5725 14.7601 21.8485 14.8801 22.1885 14.8801C22.4325 14.8801 22.6525 14.6681 22.8565 14.2441C23.0565 13.8201 23.3805 13.6081 23.8245 13.6081C24.3685 13.6081 24.9845 14.1121 25.6725 15.1241C26.0565 15.6921 26.6525 16.5481 27.4565 17.7001M20.7365 15.9441C20.7365 14.6521 20.2605 13.5321 19.3125 12.5841C18.3645 11.6361 17.2445 11.1601 15.9525 11.1601C14.6405 11.1601 13.5085 11.6281 12.5605 12.5681C11.6125 13.5081 11.1285 14.6321 11.1085 15.9441C11.0885 17.2361 11.5685 18.3521 12.5485 19.2881C13.5285 20.2281 14.6645 20.6961 15.9565 20.6961C17.3285 20.6961 18.4765 20.2481 19.3925 19.3481C20.3125 18.4521 20.7605 17.3161 20.7405 15.9441M20.2845 15.9441C20.2845 17.1761 19.8725 18.1961 19.0445 19.0001C18.2165 19.8081 17.1885 20.2121 15.9565 20.2121C14.7645 20.2121 13.7445 19.8001 12.9005 18.9721C12.0525 18.1441 11.6285 17.1361 11.6285 15.9441C11.6285 14.7721 12.0565 13.7681 12.9165 12.9321C13.7765 12.0961 14.7885 11.6761 15.9605 11.6761C17.1325 11.6761 18.1445 12.1001 19.0045 12.9481C19.8605 13.7961 20.2925 14.7961 20.2925 15.9441" fill="#211D15"/>
</g>
<path d="M16 30C23.732 30 30 23.732 30 16C30 8.26801 23.732 2 16 2C8.26801 2 2 8.26801 2 16C2 23.732 8.26801 30 16 30Z" stroke="#FFFBD5" stroke-width="1.5"/>

</svg>
